<?xml version="1.0" encoding="UTF-8" standalone="no"?>
<!DOCTYPE svg PUBLIC "-//W3C//DTD SVG 1.1//EN" "http://www.w3.org/Graphics/SVG/1.1/DTD/svg11.dtd">
<svg width="100%" height="100%" viewBox="0 0 1443 1157" version="1.1" xmlns="http://www.w3.org/2000/svg" xmlns:xlink="http://www.w3.org/1999/xlink" xml:space="preserve" xmlns:serif="http://www.serif.com/" style="fill-rule:evenodd;clip-rule:evenodd;stroke-linejoin:round;stroke-miterlimit:2;">
    <g id="Layer-1" serif:id="Layer 1" transform="matrix(4.16667,0,0,4.16667,-722,0)">
        <g transform="matrix(0,1.1101,1.15286,0,446.47,90.3918)">
            <path d="M14.461,-14.461C22.448,-14.461 28.922,-7.987 28.922,0C28.922,7.987 22.448,14.461 14.461,14.461C6.474,14.461 -0,7.987 -0,0C-0,-7.987 6.474,-14.461 14.461,-14.461" style="fill-rule:nonzero;"/>
        </g>
        <g transform="matrix(1.26068,0,0,1.1101,116.086,-218.068)">
            <rect x="85.822" y="218.059" width="190.373" height="23.444" style="fill:rgb(247,193,0);"/>
        </g>
        <g transform="matrix(1.15286,0,0,1.1101,449.059,89.3009)">
            <path d="M0,23.411C-0.294,7.604 -10.787,-4.48 -26.198,-3.927C-44.423,-3.272 -57.83,9.483 -57.83,36.935L-75.395,36.542C-75.395,1.672 -53.224,-13.524 -27.386,-13.524C-10.963,-13.524 0.867,-5.48 9.236,6.652L0,23.411Z" style="fill-rule:nonzero;"/>
        </g>
        <g transform="matrix(1.15286,0,0,1.1101,302.451,99.3108)">
            <path d="M0,116.863L0,62.373C-0.504,60.736 -1.321,58.973 -2.451,57.084C-3.581,55.196 -4.995,53.464 -6.692,51.89C-8.514,50.318 -10.65,49.01 -13.102,47.971C-15.553,46.932 -18.411,46.413 -21.677,46.413C-25.449,46.413 -28.921,47.39 -32.094,49.341C-35.267,51.292 -38.079,54.095 -40.528,57.746C-42.853,61.272 -44.691,65.758 -46.042,71.203C-47.394,76.649 -48.068,82.677 -48.068,89.287C-48.068,94.576 -47.567,99.378 -46.56,103.689C-45.555,108.002 -43.858,112.015 -41.471,115.73C-39.273,119.257 -36.461,122.09 -33.035,124.229C-29.611,126.37 -25.543,127.44 -20.829,127.44C-15.804,127.44 -11.641,126.339 -8.342,124.135C-5.042,121.931 -2.263,119.507 0,116.863M34.186,133.201L1.609,135.278L0.189,133.956L0.189,125.268L-0.565,125.079C-3.835,128.731 -7.875,131.722 -12.683,134.051C-17.494,136.379 -22.445,137.545 -27.538,137.545C-32.818,137.545 -37.927,136.364 -42.863,134.003C-47.798,131.642 -52.09,128.323 -55.734,124.04C-59.444,119.696 -62.383,114.471 -64.552,108.364C-66.721,102.258 -67.806,95.52 -67.806,88.154C-67.806,81.418 -66.644,75.027 -64.317,68.983C-61.993,62.94 -58.784,57.651 -54.697,53.118C-50.863,48.901 -46.164,45.532 -40.599,43.013C-35.036,40.496 -29.361,39.236 -23.576,39.236C-19.239,39.236 -14.98,39.788 -10.799,40.889C-6.618,41.99 -3.019,43.391 0,45.091L0,3.242C0,0.592 -0.441,-1.82 -1.322,-3.996C-2.205,-6.173 -3.433,-7.828 -5.005,-8.964C-6.768,-10.163 -9.146,-11.029 -12.135,-11.567C-15.126,-12.103 -18.354,-12.498 -21.815,-12.75L-21.815,-18.605L16.335,-20.682L17.754,-19.267L17.754,115.643C17.754,117.845 18.179,119.718 19.029,121.258C19.879,122.801 21.121,124.107 22.759,125.175C23.954,125.93 25.687,126.401 27.953,126.59C30.22,126.779 32.297,126.906 34.186,126.968L34.186,133.201Z" style="fill-rule:nonzero;"/>
        </g>
        <g transform="matrix(1.15286,0,0,1.1101,382.389,247.001)">
            <path d="M0,-105.792L0,-92.737L23.987,-92.737L23.987,-83.671L0,-83.671L0,-16.81C0,-14.605 0.425,-12.811 1.275,-11.427C2.125,-10.042 3.461,-9.003 5.288,-8.311C6.799,-7.744 8.814,-7.286 11.332,-6.941C13.849,-6.595 16.021,-6.359 17.849,-6.233L17.849,0L-31.259,0L-31.259,-6.233C-29.811,-6.359 -28.317,-6.484 -26.773,-6.611C-25.23,-6.737 -23.893,-6.989 -22.759,-7.366C-20.998,-7.933 -19.69,-8.924 -18.84,-10.341C-17.99,-11.758 -17.565,-13.599 -17.565,-15.866L-17.565,-83.671L-35.98,-83.671L-35.98,-92.737L-17.565,-92.737L-17.565,-105.502L0,-105.792Z" style="fill-rule:nonzero;"/>
        </g>
    </g>
</svg>
